<?xml version="1.0" encoding="utf-8"?>
<!-- Svg Vector Icons : http://www.onlinewebfonts.com/icon -->
<!DOCTYPE svg PUBLIC "-//W3C//DTD SVG 1.1//EN" "http://www.w3.org/Graphics/SVG/1.1/DTD/svg11.dtd">
<svg version="1.1" xmlns="http://www.w3.org/2000/svg" xmlns:xlink="http://www.w3.org/1999/xlink" x="0px" y="0px" viewBox="0 0 1000 1000" enable-background="new 0 0 1000 1000" xml:space="preserve">
<metadata> Svg Vector Icons : http://www.onlinewebfonts.com/icon </metadata>
<g><g transform="translate(0.000000,511.000000) scale(0.100000,-0.100000)"><path d="M100,588.2v-2622.3h258.4h256.5l11.5-70.8c40.2-268,126.3-449.8,289-606.8c382.8-377.1,993.4-369.4,1362.8,15.3c164.6,170.4,271.8,402,271.8,591.4v70.8h532.1h534l30.6-157c40.2-206.7,124.4-371.3,258.4-507.2c298.6-304.3,756.1-379,1135-185.7c275.6,137.8,513,499.6,514.9,779v70.8h258.4h258.4V588.2v2622.3H3085.9H100V588.2z M4626.8,1979.7c90-72.7,162.7-137.8,158.9-147.4c-13.4-36.4-2132.3-2737.1-2143.7-2731.4c-32.5,11.5-1240.3,1094.8-1240.3,1114c1.9,9.6,67,90,149.3,176.1L1698.2,548l440.2-390.5c241.2-216.3,444.1-392.4,449.8-392.4s423,530.2,928.3,1177.2s924.5,1175.2,932.2,1171.4C4454.5,2111.8,4534.9,2050.5,4626.8,1979.7z M2109.8-2049.4c0-9.6-13.4-59.3-28.7-112.9c-44-149.3-122.5-241.2-266.1-312c-112.9-55.5-139.7-61.3-246.9-53.6c-65.1,5.7-155,28.7-197.2,49.8c-153.1,78.5-273.7,246.9-275.6,382.8v61.3h507.2C1882-2034.1,2109.8-2041.8,2109.8-2049.4z M5105.3-2104.9c-34.5-185.7-191.4-359.8-369.4-409.6c-103.4-28.7-264.1-11.5-363.7,38.3c-143.6,72.7-271.8,262.2-271.8,402c0,40.2,1.9,40.2,509.1,40.2h509.1L5105.3-2104.9z"/><path d="M6550.4,13.9v-2048h354.1h354.1v-53.6c0-181.8,122.5-449.8,277.5-608.7c436.4-446,1165.7-373.2,1506.4,153.1c82.3,128.2,149.3,321.6,149.3,434.5v74.7h354.1H9900v999.2v997.2l-654.6,1050.8L8590.8,2062H7570.6H6550.4V13.9z M8891.3,703l549.3-878.6v-700.5v-698.6h-178h-179.9l-61.3,95.7c-118.7,183.7-359.8,350.3-576.1,400c-111,24.9-329.2,24.9-440.2,0c-216.3-49.8-457.5-216.3-576.1-402l-63.2-95.7l-181.8,5.7l-183.7,5.7l-5.7,1575.3l-3.8,1573.4h675.7h677.6L8891.3,703z M8426.2-1557.5c105.3-47.9,201-135.9,254.6-237.4c32.5-59.3,42.1-109.1,42.1-229.7c0-172.3-36.4-260.3-147.4-367.5c-199.1-191.4-528.3-183.8-717.8,15.3c-306.2,325.4-78.5,859.4,367.5,859.4C8299.9-1517.3,8370.7-1532.6,8426.2-1557.5z"/><path d="M7354.3,894.4V549.9h574.2h576.1l-22.9,44c-11.5,23-95.7,178-183.8,344.5l-162.7,300.5h-390.5h-390.5V894.4z"/></g></g>
</svg>