<?xml version="1.0" encoding="iso-8859-1"?>
<!-- Generator: Adobe Illustrator 19.0.0, SVG Export Plug-In . SVG Version: 6.00 Build 0)  -->
<svg version="1.1" id="Capa_1" xmlns="http://www.w3.org/2000/svg" xmlns:xlink="http://www.w3.org/1999/xlink" x="0px" y="0px"
	 viewBox="0 0 491.025 491.025" style="enable-background:new 0 0 491.025 491.025;" xml:space="preserve">
<g>
	<path  fill="#4d4b49"  d="M489.125,126.05l-28.2-109.9c-2.1-9.4-10.4-15.6-19.8-15.6h-352.7c-9.4,0-17.7,6.2-19.8,15.6l-29.2,109.8
		c-1.3,2.7-2,5.7-2,8.8v288.9l-31.2,31.5c-8.3,8.3-8.3,20.8,0,29.1c8.3,8.3,20.8,8.3,29.1,0l31.2-31.2h403.7
		c11.4,0,19.8-8.3,20.8-19.8v-298.5C491.025,131.65,490.325,128.75,489.125,126.05z M104.025,41.15h320.4l18.7,72.8h-357.8
		L104.025,41.15z M449.425,412.55h-342.3l28.2-28.2c16.1,10.6,35.3,16.8,56,16.8c56.3,0,102-45.6,102-102c0-56.3-45.6-102-102-102
		s-102,45.6-102,102c0,20.5,6,39.5,16.4,55.5l-26.8,27.1v-226.2h370.4v257H449.425z M131.125,299.15c0-33.3,27-60.3,60.3-60.3
		s60.3,27,60.3,60.3s-27,60.3-60.3,60.3S131.125,332.45,131.125,299.15z"/>
</g>
<g>
</g>
<g>
</g>
<g>
</g>
<g>
</g>
<g>
</g>
<g>
</g>
<g>
</g>
<g>
</g>
<g>
</g>
<g>
</g>
<g>
</g>
<g>
</g>
<g>
</g>
<g>
</g>
<g>
</g>
</svg>
